<svg xmlns="http://www.w3.org/2000/svg" xmlns:xlink="http://www.w3.org/1999/xlink" width="92.562" height="92.562" viewBox="0 0 92.562 92.562">
  <defs>
    <linearGradient id="linear-gradient" x1="0.5" x2="0.5" y2="1" gradientUnits="objectBoundingBox">
      <stop offset="0" stop-color="#9672fb"/>
      <stop offset="1" stop-color="#d772fb"/>
    </linearGradient>
    <filter id="BG" x="0" y="0" width="92.562" height="92.562" filterUnits="userSpaceOnUse">
      <feOffset dy="3" input="SourceAlpha"/>
      <feGaussianBlur stdDeviation="3" result="blur"/>
      <feFlood flood-opacity="0.161"/>
      <feComposite operator="in" in2="blur"/>
      <feComposite in="SourceGraphic"/>
    </filter>
    <filter id="Tracciato_22302" x="19.613" y="18.138" width="51.565" height="52.95" filterUnits="userSpaceOnUse">
      <feOffset dy="3" input="SourceAlpha"/>
      <feGaussianBlur stdDeviation="3" result="blur-2"/>
      <feFlood flood-opacity="0.161"/>
      <feComposite operator="in" in2="blur-2"/>
      <feComposite in="SourceGraphic"/>
    </filter>
  </defs>
  <g id="Raggruppa_3515" data-name="Raggruppa 3515" transform="translate(-654.65 -116.969)">
    <g id="Raggruppa_3514" data-name="Raggruppa 3514" transform="translate(657 117.215)">
      <g id="Airpod" transform="translate(0 0)">
        <g transform="matrix(1, 0, 0, 1, -2.35, -0.25)" filter="url(#BG)">
          <rect id="BG-2" data-name="BG" width="74.562" height="74.562" rx="37.281" transform="translate(9 6)" fill="url(#linear-gradient)"/>
        </g>
        <g id="Shapes" transform="translate(0 0)" opacity="0.3">
          <path id="Tracciato_15870" data-name="Tracciato 15870" d="M1.151,0A1.151,1.151,0,1,1,0,1.151,1.151,1.151,0,0,1,1.151,0Z" transform="translate(45.856 0)" fill="url(#linear-gradient)"/>
          <path id="Tracciato_15869" data-name="Tracciato 15869" d="M1.055,0A1.055,1.055,0,1,1,0,1.055,1.055,1.055,0,0,1,1.055,0Z" transform="translate(10.745 80.008)" fill="url(#linear-gradient)"/>
          <path id="Tracciato_15868" data-name="Tracciato 15868" d="M1.055,0A1.055,1.055,0,1,1,0,1.055,1.055,1.055,0,0,1,1.055,0Z" transform="translate(83.654 74.06)" fill="url(#linear-gradient)"/>
          <path id="Tracciato_15867" data-name="Tracciato 15867" d="M1.055,0A1.055,1.055,0,1,1,0,1.055,1.055,1.055,0,0,1,1.055,0Z" transform="translate(0 20.338)" fill="url(#linear-gradient)"/>
          <path id="Tracciato_15866" data-name="Tracciato 15866" d="M1.151,0A1.151,1.151,0,1,1,0,1.151,1.151,1.151,0,0,1,1.151,0Z" transform="translate(73.677 2.111)" fill="url(#linear-gradient)"/>
        </g>
      </g>
      <g transform="matrix(1, 0, 0, 1, -2.35, -0.25)" filter="url(#Tracciato_22302)">
        <path id="Tracciato_22302-2" data-name="Tracciato 22302" d="M4.393-278.658a34.394,34.394,0,0,1-8.165-.931,21.968,21.968,0,0,1-6.3-2.459l4.345-8.308a22.284,22.284,0,0,0,11.268,3.1,8.161,8.161,0,0,0,3.294-.525q1.146-.525,1.146-1.432,0-.859-1.17-1.385a23.436,23.436,0,0,0-3.7-1.146,45.613,45.613,0,0,1-5.539-1.743A10.249,10.249,0,0,1-4.273-296.2a6.988,6.988,0,0,1-1.647-4.846,11.082,11.082,0,0,1,2.029-6.613,12.941,12.941,0,0,1,5.849-4.393,23.9,23.9,0,0,1,9.024-1.552,31,31,0,0,1,6.947.74,19.391,19.391,0,0,1,5.562,2.125l-4.058,8.212a15.24,15.24,0,0,0-4.321-1.862,19,19,0,0,0-4.846-.621,8.017,8.017,0,0,0-3.629.668q-1.289.668-1.289,1.576t1.17,1.432a23.029,23.029,0,0,0,3.844,1.146,42.125,42.125,0,0,1,5.467,1.623,9.885,9.885,0,0,1,3.844,2.674,6.891,6.891,0,0,1,1.623,4.775,10.812,10.812,0,0,1-2.053,6.541,13.177,13.177,0,0,1-5.873,4.369A23.76,23.76,0,0,1,4.393-278.658Z" transform="translate(38.69 337.75)" fill="#fff"/>
      </g>
    </g>
  </g>
</svg>
