<svg xmlns="http://www.w3.org/2000/svg" xmlns:xlink="http://www.w3.org/1999/xlink" width="49.13" height="49.13" viewBox="0 0 49.13 49.13">
  <defs>
    <linearGradient id="linear-gradient" x1="0.5" x2="0.5" y2="1" gradientUnits="objectBoundingBox">
      <stop offset="0" stop-color="#9672fb"/>
      <stop offset="1" stop-color="#d772fb"/>
    </linearGradient>
    <filter id="BG" x="0" y="0" width="49.13" height="49.13" filterUnits="userSpaceOnUse">
      <feOffset dy="3" input="SourceAlpha"/>
      <feGaussianBlur stdDeviation="3" result="blur"/>
      <feFlood flood-opacity="0.161"/>
      <feComposite operator="in" in2="blur"/>
      <feComposite in="SourceGraphic"/>
    </filter>
    <filter id="Tracciato_22302" x="8.189" y="7.573" width="32.014" height="32.592" filterUnits="userSpaceOnUse">
      <feOffset dy="3" input="SourceAlpha"/>
      <feGaussianBlur stdDeviation="3" result="blur-2"/>
      <feFlood flood-opacity="0.161"/>
      <feComposite operator="in" in2="blur-2"/>
      <feComposite in="SourceGraphic"/>
    </filter>
  </defs>
  <g id="Raggruppa_3515" data-name="Raggruppa 3515" transform="translate(-650.776 -113.618)">
    <g id="Raggruppa_3514" data-name="Raggruppa 3514" transform="translate(657 117.215)">
      <g id="Airpod" transform="translate(0 0)">
        <g transform="matrix(1, 0, 0, 1, -6.22, -3.6)" filter="url(#BG)">
          <rect id="BG-2" data-name="BG" width="31.13" height="31.13" rx="15.565" transform="translate(9 6)" fill="url(#linear-gradient)"/>
        </g>
        <g id="Shapes" transform="translate(0 0)" opacity="0.3">
          <path id="Tracciato_15870" data-name="Tracciato 15870" d="M.481,0A.481.481,0,1,1,0,.481.481.481,0,0,1,.481,0Z" transform="translate(19.145)" fill="url(#linear-gradient)"/>
          <path id="Tracciato_15869" data-name="Tracciato 15869" d="M.441,0A.441.441,0,1,1,0,.441.441.441,0,0,1,.441,0Z" transform="translate(4.486 33.403)" fill="url(#linear-gradient)"/>
          <path id="Tracciato_15868" data-name="Tracciato 15868" d="M.441,0A.441.441,0,1,1,0,.441.441.441,0,0,1,.441,0Z" transform="translate(34.925 30.92)" fill="url(#linear-gradient)"/>
          <path id="Tracciato_15867" data-name="Tracciato 15867" d="M.441,0A.441.441,0,1,1,0,.441.441.441,0,0,1,.441,0Z" transform="translate(0 8.491)" fill="url(#linear-gradient)"/>
          <path id="Tracciato_15866" data-name="Tracciato 15866" d="M.481,0A.481.481,0,1,1,0,.481.481.481,0,0,1,.481,0Z" transform="translate(30.76 0.881)" fill="url(#linear-gradient)"/>
        </g>
      </g>
      <g transform="matrix(1, 0, 0, 1, -6.22, -3.6)" filter="url(#Tracciato_22302)">
        <path id="Tracciato_22302-2" data-name="Tracciato 22302" d="M-4.034-299.016a14.36,14.36,0,0,1-3.409-.389,9.172,9.172,0,0,1-2.631-1.027L-8.26-303.9a9.3,9.3,0,0,0,4.7,1.3,3.407,3.407,0,0,0,1.375-.219q.478-.219.478-.6,0-.359-.488-.578a9.787,9.787,0,0,0-1.545-.478,19.041,19.041,0,0,1-2.312-.728,4.278,4.278,0,0,1-1.6-1.136,2.917,2.917,0,0,1-.688-2.023,4.627,4.627,0,0,1,.847-2.761,5.4,5.4,0,0,1,2.442-1.834,9.978,9.978,0,0,1,3.768-.648,12.942,12.942,0,0,1,2.9.309,8.1,8.1,0,0,1,2.322.887l-1.694,3.429a6.362,6.362,0,0,0-1.8-.777,7.932,7.932,0,0,0-2.023-.259,3.347,3.347,0,0,0-1.515.279q-.538.279-.538.658t.488.6a9.615,9.615,0,0,0,1.6.478,17.582,17.582,0,0,1,2.282.678,4.127,4.127,0,0,1,1.6,1.116,2.877,2.877,0,0,1,.678,1.993,4.514,4.514,0,0,1-.857,2.731,5.5,5.5,0,0,1-2.452,1.824A9.92,9.92,0,0,1-4.034-299.016Z" transform="translate(27.26 327.18)" fill="#fff"/>
      </g>
    </g>
  </g>
</svg>
