<svg xmlns="http://www.w3.org/2000/svg" xmlns:xlink="http://www.w3.org/1999/xlink" width="786.766" height="753.324" viewBox="0 0 786.766 753.324">
  <defs>
    <linearGradient id="linear-gradient" x1="0.5" x2="0.5" y2="1" gradientUnits="objectBoundingBox">
      <stop offset="0" stop-color="#9672fb"/>
      <stop offset="1" stop-color="#d772fb"/>
    </linearGradient>
    <filter id="BG" x="52" y="46.785" width="702" height="702" filterUnits="userSpaceOnUse">
      <feOffset dy="3" input="SourceAlpha"/>
      <feGaussianBlur stdDeviation="3" result="blur"/>
      <feFlood flood-opacity="0.161"/>
      <feComposite operator="in" in2="blur"/>
      <feComposite in="SourceGraphic"/>
    </filter>
    <filter id="S" x="231" y="102.785" width="327" height="552" filterUnits="userSpaceOnUse">
      <feOffset dy="3" input="SourceAlpha"/>
      <feGaussianBlur stdDeviation="3" result="blur-2"/>
      <feFlood flood-opacity="0.161"/>
      <feComposite operator="in" in2="blur-2"/>
      <feComposite in="SourceGraphic"/>
    </filter>
  </defs>
  <g id="Raggruppa_3513" data-name="Raggruppa 3513" transform="translate(-657 -117.215)">
    <g id="Airpod" transform="translate(657 117.215)">
      <g transform="matrix(1, 0, 0, 1, 0, 0)" filter="url(#BG)">
        <rect id="BG-2" data-name="BG" width="684" height="684" rx="342" transform="translate(61 52.78)" fill="url(#linear-gradient)"/>
      </g>
      <g id="Shapes" transform="translate(0 0)" opacity="0.3">
        <path id="Tracciato_15870" data-name="Tracciato 15870" d="M10.561,0A10.561,10.561,0,1,1,0,10.561,10.561,10.561,0,0,1,10.561,0Z" transform="translate(420.665 0)" fill="url(#linear-gradient)"/>
        <path id="Tracciato_15869" data-name="Tracciato 15869" d="M9.681,0A9.681,9.681,0,1,1,0,9.681,9.681,9.681,0,0,1,9.681,0Z" transform="translate(98.566 733.963)" fill="url(#linear-gradient)"/>
        <path id="Tracciato_15868" data-name="Tracciato 15868" d="M9.681,0A9.681,9.681,0,1,1,0,9.681,9.681,9.681,0,0,1,9.681,0Z" transform="translate(767.405 679.399)" fill="url(#linear-gradient)"/>
        <path id="Tracciato_15867" data-name="Tracciato 15867" d="M9.681,0A9.681,9.681,0,1,1,0,9.681,9.681,9.681,0,0,1,9.681,0Z" transform="translate(0 186.571)" fill="url(#linear-gradient)"/>
        <path id="Tracciato_15866" data-name="Tracciato 15866" d="M10.561,0A10.561,10.561,0,1,1,0,10.561,10.561,10.561,0,0,1,10.561,0Z" transform="translate(675.88 19.361)" fill="url(#linear-gradient)"/>
      </g>
    </g>
    <g transform="matrix(1, 0, 0, 1, 657, 117.22)" filter="url(#S)">
      <text id="S-2" data-name="S" transform="translate(251 532.78)" fill="#fff" font-size="438" font-family="Montserrat-BlackItalic, Montserrat" font-weight="800" font-style="italic"><tspan x="0" y="0">S</tspan></text>
    </g>
  </g>
</svg>
